<svg xmlns="http://www.w3.org/2000/svg" width="50" height="50" viewBox="0 0 50 50">
<style>.a{ stroke:none;fill:rgb(65.098039%,75.686275%,0.392157%);}.b{ stroke:none;fill:rgb(35.294118%,35.686275%,36.078431%);}</style
>
<path d="M19.6 8.8C20.1 7.2 21.7 5.8 23.5 5.8 31.4 5.8 39.3 5.8 47.3 5.8 49.3 5.8 51.1 7.5 51.3 9.5 51.5 10.6 
51 11.6 50.7 12.7 47.8 20.2 45.1 27.8 42.2 35.4 41.8 36.6 41.3 37.9 40.1 38.6 38.6 39.6 36.8 39.2 35.1 39.3 36 38.9 36.9 38.2 37.1 37.1 
37.3 36.4 37.1 35.6 36.8 34.9 35.3 30.3 33.9 25.7 32.4 21.1 31.8 19.4 30 18.2 28.3 18.3 24.2 18.3 20.1 18.3 16.1 18.3 17.3 15.1 18.4 12 
19.6 8.8ZM19.6 8.8" class="a"/>
<path d="M0.2 22.1C-0.5 20.4 0.9 18.3 2.8 18.4 7.2 18.4 11.6 18.3 16 18.4 13.5 25.3 10.9 32.3 8.3 39.3 
6.8 39 5.3 38 4.9 36.5 3.3 31.7 1.7 26.9 0.2 22.1ZM0.2 22.1" class="a"/>
<path d="M16 18.4L16.1 18.3C20.1 18.3 24.2 18.3 28.3 18.3 30 18.2 31.8 19.4 32.4 21.1 33.9 25.7 35.3 30.3 36.8 34.9 37.1 35.6 37.3 36.4 37.1 37.1 36.9 38.2 36 38.9 35.1 39.3 34.7 39.3 34.4 39.3 34 39.3 25.4 39.3 16.9 39.4 8.3 39.3L8.3 39.3C10.9 32.3 13.5 25.3 16 18.4ZM16 18.4" style=" stroke:none;fill:rgb(22.352941%,40%,0%)"/>

</svg>