<svg xmlns="http://www.w3.org/2000/svg" width="200" height="46" viewBox="0 0 200 46"><style>.a{ stroke:none;fill:rgb(65.098039%,75.686275%,0.392157%);}.b{ stroke:none;fill:rgb(35.294118%,35.686275%,36.078431%);}</style><path d="M180.4 4.2C186 3.2 191.7 2.3 197.4 1.2 197.4 2.9 197.3 4.5 197.4 6.2 191.7 7.3 186 8.1 180.4 9.2 180.4 7.5 180.4 5.9 180.4 4.2ZM180.4 4.2" class="a"/><path d="M19.6 8.8C20.1 7.2 21.7 5.8 23.5 5.8 31.4 5.8 39.3 5.8 47.3 5.8 49.3 5.8 51.1 7.5 51.3 9.5 51.5 10.6 51 11.6 50.7 12.7 47.8 20.2 45.1 27.8 42.2 35.4 41.8 36.6 41.3 37.9 40.1 38.6 38.6 39.6 36.8 39.2 35.1 39.3 36 38.9 36.9 38.2 37.1 37.1 37.3 36.4 37.1 35.6 36.8 34.9 35.3 30.3 33.9 25.7 32.4 21.1 31.8 19.4 30 18.2 28.3 18.3 24.2 18.3 20.1 18.3 16.1 18.3 17.3 15.1 18.4 12 19.6 8.8ZM19.6 8.8" class="a"/><path d="M0.2 22.1C-0.5 20.4 0.9 18.3 2.8 18.4 7.2 18.4 11.6 18.3 16 18.4 13.5 25.3 10.9 32.3 8.3 39.3 6.8 39 5.3 38 4.9 36.5 3.3 31.7 1.7 26.9 0.2 22.1ZM0.2 22.1" class="a"/><path d="M170.4 3.4C172 3.4 173.7 3.4 175.3 3.4 175.3 5.1 175.3 6.7 175.3 8.4 173.7 8.4 172 8.4 170.4 8.4 170.4 6.7 170.4 5.1 170.4 3.4ZM170.4 3.4" class="b"/><path d="M132.9 8.4C134.5 8.4 136.1 8.4 137.8 8.4 137.7 9.4 137.7 10.5 137.7 11.5 138.8 11.5 139.9 11.5 141 11.6 141 13.2 141 14.9 141 16.5 139.9 16.5 138.8 16.5 137.7 16.5 137.7 18.7 137.7 20.9 137.8 23.1 137.9 26.2 140.7 28.8 143.8 28.8 143.8 30.4 143.8 32.1 143.8 33.7 141 33.7 138.1 32.5 136.1 30.5 134.1 28.5 132.9 25.7 132.9 22.8 132.9 18 132.9 13.2 132.9 8.4ZM132.9 8.4" class="b"/><path d="M66.7 16.3C68.8 13.3 72.4 11.5 76 11.6 78.8 11.6 81.5 12.9 83.5 14.9 82.3 16 81.2 17.2 80 18.4 78.4 16.7 75.8 16.1 73.6 17 71.3 17.8 69.7 20.2 69.6 22.6 69.6 25 71 27.3 73.1 28.3 75.4 29.4 78.3 28.9 80.1 27.1 81.2 28.2 82.4 29.4 83.5 30.6 81.6 32.4 79.2 33.6 76.5 33.8 72.7 34.1 68.8 32.2 66.7 29 64.1 25.3 64.1 20 66.7 16.3ZM66.7 16.3" class="b"/><path d="M93.1 11.7C95.5 11.4 98.1 11.9 100.2 13.1 103.6 15.1 105.8 18.9 105.7 22.9 105.7 26.1 104.1 29.3 101.6 31.3 99.7 33 97.1 33.9 94.5 33.8 90.8 33.8 87.2 31.7 85.3 28.5 83.7 25.9 83.3 22.5 84.1 19.6 85.3 15.5 88.9 12.3 93.1 11.7M93.4 16.8C90.7 17.3 88.6 19.9 88.6 22.6 88.5 25.3 90.4 27.9 93 28.6 95 29.3 97.3 28.7 98.9 27.2 100.6 25.6 101.3 22.9 100.4 20.7 99.5 17.8 96.3 16 93.4 16.8ZM93.4 16.8" class="b"/><path d="M108.3 11.6C109.9 11.5 111.6 11.5 113.2 11.6 113.2 12.2 113.2 12.8 113.2 13.5 115 12.2 117.3 11.5 119.5 11.6 123.1 11.7 126.6 13.7 128.5 16.8 129.7 18.6 130.3 20.7 130.2 22.9 130.2 26.4 130.2 30 130.2 33.6 128.6 33.6 127 33.6 125.3 33.6 125.4 30 125.3 26.4 125.4 22.8 125.4 21.2 124.7 19.5 123.5 18.3 121.8 16.5 118.8 16.1 116.6 17.2 114.5 18.2 113.1 20.5 113.2 22.8 113.2 26.4 113.2 30 113.2 33.6 111.6 33.6 109.9 33.6 108.3 33.6 108.3 26.2 108.3 18.9 108.3 11.6ZM108.3 11.6" class="b"/><path d="M151.4 12.7C154.1 11.4 157.4 11.3 160.2 12.4 164.1 13.9 167 17.9 167.2 22.2 167.2 26 167.2 29.8 167.2 33.6 165.6 33.6 163.9 33.6 162.3 33.6 162.3 33 162.3 32.5 162.3 31.9 159.7 33.8 156.1 34.3 153 33.3 147.9 31.9 144.4 26.3 145.3 21.1 145.8 17.5 148.2 14.3 151.4 12.7M154.9 16.7C152 17.3 149.9 20.2 150.1 23.1 150.2 25.7 152.3 28.2 154.8 28.7 156.9 29.3 159.2 28.6 160.6 27 162.2 25.4 162.8 22.8 161.9 20.6 161 17.8 157.8 16 154.9 16.7ZM154.9 16.7" class="b"/><path d="M170.4 11.6C172 11.6 173.7 11.6 175.3 11.6 175.3 18.5 175.3 25.5 175.3 32.4 175.3 34.2 175.3 36.1 174.6 37.8 173.1 42 168.8 45 164.4 45 164.4 43.3 164.4 41.7 164.4 40.1 167.5 40.1 170.4 37.3 170.4 34.2 170.4 26.6 170.4 19.1 170.4 11.6ZM170.4 11.6" class="b"/><path d="M180.3 15.8C182.3 13.3 185.5 11.6 188.7 11.6 191.5 11.5 194.3 12.6 196.3 14.5 198.6 16.5 199.8 19.4 200 22.4L200 33.6C198.3 33.6 196.7 33.6 195 33.6 195 33 195 32.5 195.1 31.9 192 34 187.9 34.4 184.5 32.9 181.5 31.6 179.2 28.9 178.4 25.7 177.4 22.4 178.1 18.6 180.3 15.8M187.4 16.8C184.8 17.4 182.9 19.9 182.9 22.6 182.7 25.4 184.8 28.1 187.5 28.7 189.8 29.3 192.3 28.4 193.7 26.6 195.1 24.9 195.4 22.5 194.6 20.5 193.6 17.7 190.3 16 187.4 16.8ZM187.4 16.8" class="b"/><path d="M16 18.4L16.1 18.3C20.1 18.3 24.2 18.3 28.3 18.3 30 18.2 31.8 19.4 32.4 21.1 33.9 25.7 35.3 30.3 36.8 34.9 37.1 35.6 37.3 36.4 37.1 37.1 36.9 38.2 36 38.9 35.1 39.3 34.7 39.3 34.4 39.3 34 39.3 25.4 39.3 16.9 39.4 8.3 39.3L8.3 39.3C10.9 32.3 13.5 25.3 16 18.4ZM16 18.4" style=" stroke:none;fill:rgb(22.352941%,40%,0%)"/></svg>